<?xml version="1.0" standalone="no"?>
<!DOCTYPE svg PUBLIC "-//W3C//DTD SVG 1.1//EN" "http://www.w3.org/Graphics/SVG/1.1/DTD/svg11.dtd" >
<svg xmlns="http://www.w3.org/2000/svg" xmlns:xlink="http://www.w3.org/1999/xlink" version="1.1">
<metadata>
Created by FontForge 20170731 at Thu Mar 10 21:29:12 2022
 By Aleksey,,,
Typeface (c) Zion International Associates Data (c) Zion In ternational Associates 2020. All rights reserved.
</metadata>
<defs>
<font id="Yisraeleethengtranslit" horiz-adv-x="0" >
  <font-face 
    font-family="Yisraeleeth400 eng translit"
    font-weight="400"
    font-stretch="normal"
    units-per-em="2048"
    panose-1="0 0 0 0 0 0 0 0 0 0"
    ascent="1638"
    descent="-410"
    x-height="1063"
    bbox="-446 -628 1910 1636"
    underline-thickness="98"
    underline-position="-349"
    unicode-range="U+0008-FB4F"
  />
<missing-glyph horiz-adv-x="1536" 
d="M256 0v1280h1024v-1280h-1024zM289 33h958v1214h-958v-1214z" />
    <glyph glyph-name=".notdef" horiz-adv-x="1536" 
d="M256 0v1280h1024v-1280h-1024zM289 33h958v1214h-958v-1214z" />
    <glyph glyph-name=".null" 
 />
    <glyph glyph-name="nonmarkingreturn" unicode="&#x9;" horiz-adv-x="565" 
 />
    <glyph glyph-name="nonmarkingreturn" unicode="&#xd;" horiz-adv-x="565" 
 />
    <glyph glyph-name="NULL" 
 />
    <glyph glyph-name="NULL" 
 />
    <glyph glyph-name="space" unicode=" " horiz-adv-x="565" 
 />
    <glyph glyph-name="exclam" unicode="!" horiz-adv-x="512" 
d="M201 365l-43 536v326h198v-326l-39 -536h-116zM156 0v205h204v-205h-204z" />
    <glyph glyph-name="quotedbl" unicode="&#x22;" horiz-adv-x="849" 
d="M390 676l-98 385h-204l182 -385h120zM762 676l-98 385h-206l182 -385h122z" />
    <glyph glyph-name="numbersign" unicode="#" horiz-adv-x="1136" 
d="M934 0l-58 279h132v137h-156l-50 229h206v137h-232l-60 279h-138l56 -279h-222l-56 279h-142l58 -279h-144v-137h172l44 -229h-216v-137h244l58 -279h142l-58 279h224l54 -279h142zM708 416h-220l-48 229h224z" />
    <glyph glyph-name="dollar" unicode="$" horiz-adv-x="942" 
d="M522 477l76 33q118 51 176 121q52 66 52 172q0 133 -92 207q-90 74 -212 73v129h-102v-129q-252 -39 -280 -292l148 -25q20 145 132 170v-313l-66 -27q-128 -53 -190 -127q-58 -70 -58 -180q0 -131 92 -221q94 -90 222 -91v-131h102v134q280 39 314 337l-150 27
q-20 -193 -164 -223v356zM522 662v272q48 0 98 -33q44 -31 44 -88t-28 -86q-22 -22 -114 -65zM420 434v-317q-150 35 -150 153q0 43 32 88q32 41 118 76z" />
    <glyph glyph-name="percent" unicode="%" horiz-adv-x="1441" 
d="M1100 -41l-596 1149h-162l594 -1149h164zM1364 817q0 129 -74 209q-76 82 -190 82q-128 0 -198 -90q-68 -88 -66 -201q0 -111 67 -199t197 -88q126 0 194 86q70 88 70 201zM1206 819q0 -188 -106 -188t-108 188q0 188 108 189q106 -1 106 -189zM78 248q0 -129 74 -209
q76 -82 190 -82q128 0 196 88t68 203q0 129 -76 207q-78 80 -189 80t-185 -78q-78 -82 -78 -209zM236 246q0 188 106 188t106 -188t-106 -189q-106 1 -106 189z" />
    <glyph glyph-name="quotesingle" unicode="'" horiz-adv-x="991" 
d="M344 676l98 385h205l-182 -385h-121z" />
    <glyph glyph-name="parenleft" unicode="(" horiz-adv-x="489" 
d="M438 1270q-150 -297 -149 -742q0 -408 160 -735h-103q-236 362 -235 735q0 420 225 742h102z" />
    <glyph glyph-name="parenright" unicode=")" horiz-adv-x="489" 
d="M45 -207q160 328 160 735q0 444 -150 742h103q225 -322 225 -742q0 -371 -236 -735h-102z" />
    <glyph glyph-name="asterisk" unicode="*" horiz-adv-x="692" 
d="M123 741q104 131 147 170q-121 23 -221 52l43 127q152 -55 207 -89q-14 113 -14 226h127q0 -106 -21 -226q86 47 211 89l43 -127q-104 -37 -223 -52q96 -96 156 -170l-109 -77q-86 127 -125 192q-66 -129 -119 -192z" />
    <glyph glyph-name="plus" unicode="+" horiz-adv-x="995" 
d="M418 182v273h-271v153h271v275h164v-275h270v-153h-270v-273h-164z" />
    <glyph glyph-name="comma" unicode="," horiz-adv-x="681" 
d="M199 1194h145l231 281h-241z" />
    <glyph glyph-name="hyphen" unicode="-" horiz-adv-x="710" 
d="M90 451v159h535v-159h-535z" />
    <glyph glyph-name="period" unicode="." horiz-adv-x="421" 
d="M111 0v205h204v-205h-204z" />
    <glyph glyph-name="slash" unicode="/" horiz-adv-x="1593" 
d="M319 158q-135 -94 -249 -138l57 -135q158 57 315 181q162 -90 361 -91q199 0 360.5 95.5t248.5 269.5t87 393q0 209 -80 381q-88 188 -258 285q-162 94 -362 94q-201 0 -365 -95t-250 -270.5t-86 -394.5q0 -362 221 -575zM745 406q-168 -47 -276 -142q-170 158 -170 469
q0 369 236 518q117 74 262 74q250 0 383 -176q121 -158 120 -416q0 -256 -120 -416q-135 -176 -383 -176q-104 0 -197 39q92 59 193 84z" />
    <glyph glyph-name="zero" unicode="0" horiz-adv-x="995" 
d="M94 532q0 258 113 408q117 152 293 152q180 0 293 -152t112 -408q0 -256 -110 -407q-113 -156 -295 -156q-188 0 -297 159.5t-109 403.5zM705 530q0 403 -205 403.5t-205 -403.5q0 -403 205 -403t205 403z" />
    <glyph glyph-name="one" unicode="1" horiz-adv-x="995" 
d="M718 870q-212 49 -334 209h-106v-1079h180v819q90 -70 260 -90v141z" />
    <glyph glyph-name="two" unicode="2" horiz-adv-x="995" 
d="M866 803q-26 133 -132 211q-104 76 -256 76q-144 0 -244 -89q-94 -86 -94 -235q0 -178 228 -342q246 -174 272 -270h-526v-154h766q-20 168 -116 287q-84 104 -292 258q-146 109 -148 217q0 70 37 121t129 51q164 0 192 -162z" />
    <glyph glyph-name="three" unicode="3" horiz-adv-x="995" 
d="M308 580q-90 -23 -144 -103q-52 -76 -56 -166q0 -145 100 -239q104 -96 264 -97q166 0 282 84q118 86 132 211l-168 31q-8 -70 -76 -125q-66 -53 -152 -53q-92 0 -148 49t-56 127q0 82 58 135q60 57 128 58q46 0 86 -9l-16 140h-20q-90 0 -138 53q-44 51 -44 112
q0 78 44 111q48 35 112 35q138 0 182 -127l168 29q-28 119 -130 186q-102 68 -236 68q-116 0 -216 -74q-98 -74 -98 -213q0 -160 142 -223z" />
    <glyph glyph-name="four" unicode="4" horiz-adv-x="995" 
d="M398 0v238h537v100l-594 741h-115v-702h-166v-139h166v-238h172zM726 377h-328v409z" />
    <glyph glyph-name="five" unicode="5" horiz-adv-x="995" 
d="M706 285q-6 -70 -62 -115q-60 -47 -142 -47q-94 0 -148 59q-54 61 -54 164q0 100 54 162q58 63 146 63q124 0 196 -90l148 15l-106 565h-570v-154h444l54 -270q-86 70 -210 70q-146 0 -242 -103q-98 -106 -100 -254q0 -170 114 -272t290 -103q132 0 236 76
q106 78 126 211z" />
    <glyph glyph-name="six" unicode="6" horiz-adv-x="995" 
d="M713 575q-104 131 -270 132q-147 0 -246 -99q-96 -96 -96 -258q0 -160 104 -266q106 -109 275 -109q193 0 305 146q109 139 108 381q0 274 -118 428q-121 158 -324 160q-119 0 -201 -58q-82 -57 -108 -149l174 -27q41 78 149 78q113 0 181 -96q67 -93 67 -263zM682 346
q0 -100 -55 -161.5t-141 -61.5q-100 0 -150 61q-53 66 -53 162q0 98 51 158q49 59 146 59q88 0 145 -59q57 -60 57 -158z" />
    <glyph glyph-name="seven" unicode="7" horiz-adv-x="995" 
d="M893 907v154h-739v-121q129 -129 219 -393q88 -260 88 -547h184q0 266 -84 530q-82 254 -192 377h524z" />
    <glyph glyph-name="eight" unicode="8" horiz-adv-x="995" 
d="M283 582q-119 82 -119 221q0 141 100 213q102 74 236 74q129 0 232.5 -74t103.5 -213t-119 -221v-2q76 -37 129 -111q47 -68 47 -158q0 -135 -109 -239q-106 -100 -284 -101q-180 0 -287 103q-106 104 -107 237q0 86 50 158q53 76 127 111v2zM500 639q61 0 110 37
q51 39 52 106q0 78 -50 115q-49 37 -112 37q-70 0 -117 -41q-45 -39 -45 -111q0 -68 49 -104q52 -39 113 -39zM500 127q78 0 137 45t59 139q0 76 -57 127t-139 51q-84 0 -140.5 -51t-56.5 -127q0 -94 59 -139q60 -45 138 -45z" />
    <glyph glyph-name="nine" unicode="9" horiz-adv-x="995" 
d="M282 504q104 -131 269 -131q154 0 245 96q96 102 97 246q0 158 -111 266q-113 109 -260 109q-190 0 -305 -144q-115 -145 -115 -385q0 -262 119 -424t326 -162q111 0 198 64q92 68 111 143l-174 27q-41 -78 -150 -78q-119 0 -182 100q-68 107 -68 273zM315 719
q0 104 51 164q49 59 146 59q82 0 137 -61q57 -63 57 -162q0 -82 -53 -141q-51 -57 -139 -58q-82 0 -139 58q-60 59 -60 141z" />
    <glyph glyph-name="colon" unicode=":" horiz-adv-x="481" 
d="M139 606v205h205v-205h-205zM139 0v205h205v-205h-205z" />
    <glyph glyph-name="semicolon" unicode=";" horiz-adv-x="493" 
d="M342 606v205h-204v-205h204zM342 0v205h-204v-205q0 -109 32 -174q35 -72 134 -115l51 76q-117 47 -117 213h104z" />
    <glyph glyph-name="less" unicode="&#x3c;" horiz-adv-x="995" 
d="M104 465v139l791 334v-162l-590 -241l590 -244v-164z" />
    <glyph glyph-name="equal" unicode="=" horiz-adv-x="995" 
d="M850 614h-700v160h700v-160zM850 287h-700v159h700v-159z" />
    <glyph glyph-name="greater" unicode="&#x3e;" horiz-adv-x="995" 
d="M895 465l-791 -338v164l590 244l-590 241v162l791 -334v-139z" />
    <glyph glyph-name="question" unicode="?" horiz-adv-x="899" 
d="M550 365q0 115 -38 184q-40 74 -114 143q-94 86 -118 129q-26 45 -26 105q0 76 60 123q62 49 146 49q82 0 132 -41q56 -43 74 -111l160 25q-24 129 -136 207q-108 76 -262 75q-152 0 -254 -92q-102 -90 -102 -231q0 -78 36 -142q36 -68 146 -159q86 -72 122 -129
q34 -59 34 -135h140zM580 0v205h-206v-205h206z" />
    <glyph glyph-name="bracketleft" unicode="[" horiz-adv-x="565" 
d="M156 -207v1477h368v-135h-217v-1207h217v-135h-368z" />
    <glyph glyph-name="backslash" unicode="\" horiz-adv-x="634" 
d="M578 -25h-154l-365 1295h156z" />
    <glyph glyph-name="bracketright" unicode="]" horiz-adv-x="567" 
d="M416 -207h-371v135h217v1207h-217v135h371v-1477z" />
    <glyph glyph-name="a" unicode="a" horiz-adv-x="1138" 
d="M317 131q182 -156 392 -156q156 0 254 74q109 80 108 232q0 158 -127 245q-59 39 -131 60q-51 12 -160 26q-217 27 -319 62q-2 37 -2 47q0 217 256 217q123 0 185.5 -44t90.5 -159l176 25q-47 219 -237 289q-104 37 -242 36q-252 0 -346 -112q-39 -49 -55 -121
q-8 -45 -8 -168v-240q0 -211 -2 -227q-8 -133 -56 -217h189q26 55 34 131zM334 532q96 -39 293 -67q90 -12 125 -25q74 -23 102 -69q27 -39 27 -86q0 -84 -68 -129q-57 -39 -147 -39q-223 0 -304 170q-29 61 -28 180v65z" />
    <glyph glyph-name="b" unicode="b" horiz-adv-x="1138" 
d="M842 0v133q-100 -158 -297 -158q-131 0 -236.5 72t-163 196t-57.5 287q0 348 211 488q106 68 238 67q188 0 292 -145v526h181v-1466h-168zM272 530q0 -162 64 -270q78 -135 225 -135t223 127q61 104 62 262q0 172 -60 283q-76 141 -231 141q-154 0 -225 -137
q-58 -105 -58 -271z" />
    <glyph glyph-name="c" unicode="c" horiz-adv-x="1024" 
d="M217 389l-178 -22q29 -180 146.5 -286t295.5 -106q238 0 367 160q117 147 117 391q0 367 -232 496q-115 63 -252 63q-170 0 -281.5 -85t-142.5 -250l174 -27q51 215 242 215q307 0 307 -406q0 -408 -297 -407q-229 0 -266 264z" />
    <glyph glyph-name="d" unicode="d" horiz-adv-x="1138" 
d="M276 0v133q100 -158 297 -158q131 0 236.5 72t163 196t57.5 287q0 348 -213 488q-104 68 -235 67q-188 0 -293 -145v526h-180v-1466h167zM846 530q0 -162 -64 -270q-78 -135 -227 -135q-147 0 -221 127q-61 104 -62 262q0 172 60 283q76 141 231 141q152 0 225 -137
q58 -105 58 -271z" />
    <glyph glyph-name="e" unicode="e" horiz-adv-x="1138" 
d="M238 342l-187 -23q94 -344 467 -344q246 0 379 154q127 145 127 393q0 246 -121 400q-133 164 -375 163q-233 0 -362 -161q-121 -150 -121 -392q0 -16 2 -47h793q-10 -156 -86 -252q-86 -109 -236 -108q-202 0 -280 217zM829 633h-593q12 133 67 201q88 104 223 104
q131 0 213 -86t90 -219z" />
    <glyph glyph-name="f" unicode="f" horiz-adv-x="569" 
d="M401 0v922h160v141h-160v113q0 100 -16 151q-25 74 -92.5 119t-183.5 45q-76 0 -168 -18l26 -156q55 8 107 8q86 0 117.5 -38t31.5 -128v-96h-207v-141h207v-922h178z" />
    <glyph glyph-name="g" unicode="g" horiz-adv-x="1138" 
d="M1020 -88l-174 -27q-25 -168 -246 -168q-233 0 -285 191q-14 53 -12 231q119 -139 295 -139q217 0 344 164q115 147 115 373q0 336 -215 479q-104 70 -246 69q-188 0 -309 -151v129h-166v-920q0 -199 29 -293q45 -147 180 -221q111 -59 270 -59q184 0 295 76
q129 90 125 266zM870 551q0 -168 -59 -272q-76 -129 -231 -129q-154 0 -230 126q-61 102 -61 269q0 158 65 264q80 129 230 129q145 0 223 -127q63 -104 63 -260z" />
    <glyph glyph-name="h" unicode="h" horiz-adv-x="1138" 
d="M1038 0v1466h-180v-526q-125 145 -317 145q-250 0 -330 -174q-37 -82 -37 -237v-674h180v674q0 258 224 258q80 0 150.5 -42t100 -112.5t29.5 -195.5v-582h180z" />
    <glyph glyph-name="i" unicode="i" horiz-adv-x="454" 
d="M135 1260v206h180v-206h-180zM135 0v1063h180v-1063h-180z" />
    <glyph glyph-name="j" unicode="j" horiz-adv-x="454" 
d="M326 1257v209h-181v-209h181zM555 -412l-35 154q-53 -14 -86 -14q-76 0 -98 75q-10 37 -10 144v1116h-181v-1120q0 -197 52 -275q66 -98 217 -98q71 0 141 18z" />
    <glyph glyph-name="k" unicode="k" horiz-adv-x="1024" 
d="M907 0v1466h-180v-835l-426 432h-231l405 -395l-446 -668h221l350 543l127 -121v-422h180z" />
    <glyph glyph-name="l" unicode="l" horiz-adv-x="454" 
d="M131 0v1466h180v-1466h-180z" />
    <glyph glyph-name="m" unicode="m" horiz-adv-x="1705" 
d="M1513 0v1063h-161v-150q-111 172 -322 172q-236 0 -301 -186q-125 186 -328 186q-327 0 -327 -356v-729h180v670q0 95 8 129q16 67 72 102q47 29 108 29q135 0 201 -92q59 -82 59 -222v-616h181v690q0 240 186 240q176 0 236 -158q28 -73 28 -221v-551h180z" />
    <glyph glyph-name="n" unicode="n" horiz-adv-x="1138" 
d="M1030 0v1063h-162v-152q-117 174 -338 174q-207 0 -297 -124q-39 -55 -55 -134q-10 -49 -10 -174v-653h180v645q0 195 96 252q53 33 125 33q283 0 283 -350v-580h178z" />
    <glyph glyph-name="o" unicode="o" horiz-adv-x="1138" 
d="M68 530q0 248 125 398q131 158 372 157q236 0 371 -153q127 -147 127 -385q0 -373 -240 -506q-119 -66 -258 -66q-242 0 -375 160q-122 147 -122 395zM254 530q0 -170 68 -278q84 -127 243 -127q164 0 246 131q68 109 68 281q0 166 -72 274q-84 127 -242 127
q-160 0 -243 -129q-68 -107 -68 -279z" />
    <glyph glyph-name="p" unicode="p" horiz-adv-x="1138" 
d="M1051 -408v1471h-164v-139q-117 162 -307 161q-287 0 -398 -266q-53 -129 -53 -280q0 -350 229 -494q111 -70 234 -70q172 0 278 136v-519h181zM889 524q0 -162 -62 -268q-74 -131 -223 -131q-154 0 -229 137q-61 111 -62 279q0 158 60 268q76 135 223 135t227 -143
q66 -117 66 -277z" />
    <glyph glyph-name="q" unicode="q" horiz-adv-x="1138" 
d="M238 -408v521q98 -137 278 -138q219 0 348 179q115 160 115 387q0 346 -217 479q-106 66 -232 65q-197 0 -311 -165v143h-162v-1471h181zM793 535q0 -164 -64 -275q-78 -135 -227 -135q-147 0 -221 129q-61 106 -62 264q0 164 64 281q80 145 229 145q152 0 223 -137
q58 -108 58 -272z" />
    <glyph glyph-name="r" unicode="r" horiz-adv-x="681" 
d="M559 0v1063h-162v-162q-102 184 -229 184q-92 0 -186 -57l61 -168q68 39 133 39q131 0 172 -133q31 -96 31 -211v-555h180z" />
    <glyph glyph-name="s" unicode="s" horiz-adv-x="1024" 
d="M961 317l-179 27q-31 -219 -274 -219q-96 0 -162 35q-82 45 -82 133q0 61 53 96q35 25 185 62q166 41 213 59q129 49 176 127q41 66 41 143q0 143 -121 232q-102 74 -270 73q-262 0 -361 -133q-45 -61 -61 -164l176 -24q25 174 231 174q231 0 232 -137q0 -76 -92 -111
q-25 -10 -158 -47q-178 -47 -211 -59q-125 -47 -171 -114t-46 -159q0 -203 203 -291q100 -45 225 -45q394 0 453 342z" />
    <glyph glyph-name="t" unicode="t" horiz-adv-x="569" 
d="M80 162l-27 -160q76 -16 137 -16q178 0 228 112q23 51 22 213v611h131v141h-131v262l-180 109v-371h-180v-141h180v-621q0 -78 -12 -106q-20 -41 -88 -41q-31 0 -80 8z" />
    <glyph glyph-name="u" unicode="u" horiz-adv-x="1138" 
d="M268 0v156q125 -180 338 -181q84 0 164 31q90 36 133 96q40 57 55 134q11 58 11 167v660h-181v-590q0 -143 -10 -190q-35 -152 -209 -152q-80 0 -150.5 41t-100 112.5t-29.5 209.5v569h-180v-1063h159z" />
    <glyph glyph-name="v" unicode="v" horiz-adv-x="1024" 
d="M430 0l-403 1063h188l229 -637q37 -104 68 -213q25 82 68 201l235 649h184l-401 -1063h-168z" />
    <glyph glyph-name="w" unicode="w" horiz-adv-x="1478" 
d="M332 0l-326 1063h187l231 -842q18 83 55 219l168 623h187l210 -819l244 819h174l-332 -1063h-186l-170 637l-41 180l-215 -817h-186z" />
    <glyph glyph-name="x" unicode="x" horiz-adv-x="1024" 
d="M14 0l389 553l-360 510h225l164 -250q41 -63 74 -119q35 51 82 117l178 252h215l-367 -502l396 -561h-222l-276 420l-279 -420h-219z" />
    <glyph glyph-name="y" unicode="y" horiz-adv-x="1024" 
d="M909 -410l21 170q-59 -16 -105 -16q-106 0 -153 76q-18 29 -56 135q-4 8 -12 33l-4 10l404 1065h-195l-221 -617q-45 -127 -76 -245q-33 127 -76 241l-225 621h-180l403 -1081q66 -176 101 -240q94 -172 258 -172q53 0 116 20z" />
    <glyph glyph-name="z" unicode="z" horiz-adv-x="1024" 
d="M967 0v145l-676 777q115 -6 203 -7h432v148h-869v-121l686 -797q-121 10 -227 11h-489v-156h940z" />
    <glyph glyph-name="braceleft" unicode="{" horiz-adv-x="614" 
d="M100 594q115 20 115 240v176q0 260 281 260h77v-121h-49q-86 0 -121 -39q-33 -35 -32 -123v-153q0 -129 -35 -195q-39 -72 -123 -109q158 -66 158 -303v-153q0 -98 41 -129q45 -33 112 -33h49v-121h-77q-281 0 -281 260v176q0 219 -115 240v127z" />
    <glyph glyph-name="bar" unicode="|" horiz-adv-x="559" 
d="M211 -209v1479h141v-1479h-141z" />
    <glyph glyph-name="braceright" unicode="}" horiz-adv-x="614" 
d="M518 467q-115 -20 -115 -240v-176q0 -260 -280 -260h-78v121h49q84 0 119 39t35 123v153q0 127 37 197t121 106q-158 66 -158 304v153q0 86 -35 123q-37 39 -119 39h-49v121h78q281 0 280 -260v-176q0 -219 115 -240v-127z" />
    <glyph glyph-name="nonbreakingspace" unicode="&#xa0;" horiz-adv-x="565" 
 />
    <glyph glyph-name="uni034F" unicode="&#x34f;" 
 />
    <glyph glyph-name="uni0591" unicode="&#x591;" 
d="M176 -502h-90v80q0 57 -18 88t-66 31q-53 0 -72 -31q-18 -31 -18 -88v-80h-90v90q0 156 133 191v88h90v-88q131 -31 131 -191v-90z" />
    <glyph glyph-name="uni0592" unicode="&#x592;" 
d="M-205 1274q0 33 24.5 57.5t57.5 24.5t57.5 -24.5t24.5 -57.5t-24.5 -57.5t-57.5 -24.5t-57.5 24.5t-24.5 57.5zM-82 1468q0 35 25 60q23 23 57.5 22.5t56.5 -22.5q25 -25 25 -60q0 -33 -24.5 -57.5t-57.5 -24.5t-57.5 24.5t-24.5 57.5zM41 1274q0 33 24.5 57.5t57.5 24.5
t57.5 -24.5t24.5 -57.5t-24.5 -57.5t-57.5 -24.5t-57.5 24.5t-24.5 57.5z" />
    <glyph glyph-name="uni0593" unicode="&#x593;" 
d="M137 1288l-186 -86h-88l186 86l-186 86l186 86l-186 86l186 86h88l-186 -86l186 -86l-186 -86z" />
    <glyph glyph-name="uni0594" unicode="&#x594;" 
d="M-82 1276q0 31 24.5 55.5t57.5 24.5t57.5 -24.5t24.5 -55.5q0 -35 -24.5 -59.5t-57.5 -24.5t-57.5 24.5t-24.5 59.5zM-82 1522q0 33 24.5 57.5t57.5 24.5t57.5 -25t24.5 -57q0 -33 -25 -58t-57.5 -24.5t-56.5 24.5q-25 25 -25 58z" />
    <glyph glyph-name="uni0595" unicode="&#x595;" 
d="M20 1276q0 33 23 55q25 25 59 25q35 0 60 -25q23 -23 22 -55q0 -37 -22 -59q-25 -25 -60 -25t-59 25q-23 22 -23 59zM20 1522q0 35 23 57q25 25 59 25q35 0 60 -25q23 -23 22 -57q0 -37 -22 -58q-25 -25 -60 -24q-35 0 -59 24q-23 23 -23 58zM-172 1583h104v-371h-104
v371z" />
    <glyph glyph-name="uni0596" unicode="&#x596;" 
d="M-35 -133q-6 -41 -6 -84q0 -102 41 -150q39 -45 123 -45v-90q-133 6 -195 76q-59 68 -59 213q0 39 6 80h90z" />
    <glyph glyph-name="uni0597" unicode="&#x597;" 
d="M141 1380l-141 -178l-139 178l139 179z" />
    <glyph glyph-name="uni0598" unicode="&#x598;" 
d="M104 1440l31 57q82 -49 82 -143q0 -63 -31 -109q-31 -43 -84 -43q-45 0 -73 37q-25 33 -45 84q-14 37 -37 82q-18 37 -49 37q-63 0 -64 -88q0 -68 51 -88l-22 -64q-92 61 -92 152q0 63 34 106q37 45 89 45q51 0 79 -39q39 -51 50 -82q6 -12 17 -38.5t17 -40.5
q16 -39 45 -39q51 0 52 88q-1 59 -50 86z" />
    <glyph glyph-name="uni0599" unicode="&#x599;" 
d="M-94 1202q6 41 6 84q0 104 -39 149.5t-125 45.5v90q131 -6 195 -78q59 -68 59 -211q0 -41 -6 -80h-90z" />
    <glyph glyph-name="uni059A" unicode="&#x59a;" 
d="M303 -502h-123l-180 185l180 184h123l-180 -184z" />
    <glyph glyph-name="uni059B" unicode="&#x59b;" 
d="M137 -133q6 -43 6 -80q0 -145 -59 -213q-61 -70 -195 -76v90q84 0 123 45q41 47 41 150q0 41 -6 84h90zM-135 -245.5q0 -28.5 20.5 -49t48.5 -20.5q31 0 50.5 20.5t19.5 49t-20 48.5t-50 21q-29 0 -49 -21q-20 -20 -20 -48.5z" />
    <glyph glyph-name="uni059C" unicode="&#x59c;" 
d="M-164 1202q-6 41 -6 80q0 143 59 211q63 72 195 78v-90q-86 0 -125 -45t-39 -150q0 -43 6 -84h-90z" />
    <glyph glyph-name="uni059D" unicode="&#x59d;" 
d="M6 1202q-6 41 -6 80q0 143 59 211q63 72 195 78v-90q-86 0 -125 -45t-39 -150q0 -43 6 -84h-90z" />
    <glyph glyph-name="uni059E" unicode="&#x59e;" 
d="M-51 1202q-6 41 -6 80q0 143 59 211q63 72 195 78v-90q-84 0 -123 -45q-41 -47 -41 -150q0 -43 6 -84h-90zM-297 1202q-6 41 -6 80q0 143 59 211q63 72 195 78v-90q-84 0 -123 -45q-41 -47 -41 -150q0 -43 6 -84h-90z" />
    <glyph glyph-name="uni059F" unicode="&#x59f;" 
d="M35 1421q0 66 47 113t111 47q66 0 112.5 -47t46.5 -113q0 -63 -47 -110t-112 -47q-29 0 -62 10l-59 -98l-56 32l64 103q-45 44 -45 110zM100 1421q0 -39 27 -65.5t66 -26.5t65 27q29 29 29 65q0 39 -29 68q-27 27 -65 27q-39 0 -66 -27t-27 -68zM-35 1421q0 -66 -45 -110
l64 -103l-56 -32l-59 98q-33 -10 -62 -10q-66 0 -112.5 47t-46.5 110q0 66 47 113t112 47q63 0 110.5 -47t47.5 -113zM-100 1421q0 41 -27 68t-66 27t-65 -27q-29 -29 -29 -68q0 -37 29 -65q27 -27 65 -27q39 0 66 26.5t27 65.5z" />
    <glyph glyph-name="uni05A0" unicode="&#x5a0;" 
d="M20 1421q0 66 48 113q47 47 110 47q66 0 113 -47t47 -113q0 -63 -47 -110t-113 -47q-29 0 -61 10l-60 -98l-55 32l64 103q-46 47 -46 110zM86 1421q0 -39 26.5 -65.5t65.5 -26.5q41 0 68 27t26 65q0 43 -26 68q-27 27 -68 27q-39 0 -65.5 -27t-26.5 -68z" />
    <glyph glyph-name="uni05A1" unicode="&#x5a1;" 
d="M152 1497q0 -74 -43 -131t-109 -57q-33 0 -63 10v-117h-87v369h87v-176q10 -10 43 -11q86 0 86 127v60h86v-74z" />
    <glyph glyph-name="uni05A2" unicode="&#x5a2;" 
d="M176 -223q0 -156 -131 -191v-88h-90v88q-133 35 -133 191v90h90v-80q0 -57 18 -88t72 -31q47 0 66 31q18 31 18 88v80h90v-90z" />
    <glyph glyph-name="uni05A3" unicode="&#x5a3;" 
d="M131 -479h-262v86h176v260h86v-346z" />
    <glyph glyph-name="uni05A4" unicode="&#x5a4;" 
d="M152 -502h-123l-181 185l181 184h123l-181 -184z" />
    <glyph glyph-name="uni05A5" unicode="&#x5a5;" 
d="M137 -133q6 -41 6 -80q0 -145 -59 -213q-61 -70 -195 -76v90q84 0 123 45q41 47 41 150q0 43 -6 84h90z" />
    <glyph glyph-name="uni05A6" unicode="&#x5a6;" 
d="M-27 -133q6 -47 7 -80q0 -143 -60 -213q-61 -70 -194 -76v90q84 0 122 45q41 47 41 150q0 43 -6 84h90zM219 -133q6 -41 6 -80q0 -145 -59 -213q-61 -70 -195 -76v90q84 0 123 45q41 47 41 150q0 43 -6 84h90z" />
    <glyph glyph-name="uni05A7" unicode="&#x5a7;" 
d="M129 -418l-66 -55l-196 -39v78l145 28l-141 189l66 53l194 41v-76l-145 -32z" />
    <glyph glyph-name="uni05A8" unicode="&#x5a8;" 
d="M70 1202q6 41 6 84q0 104 -39 149.5t-125 45.5v90q131 -6 194 -78q59 -70 60 -211q0 -41 -6 -80h-90z" />
    <glyph glyph-name="uni05A9" unicode="&#x5a9;" 
d="M-20 1421q0 -63 -46 -110l64 -103l-55 -32l-60 98q-33 -10 -61 -10q-66 0 -113 47t-47 110q0 66 47 113t113 47q63 0 110 -47q48 -47 48 -113zM-86 1421q0 41 -26.5 68t-65.5 27q-41 0 -68 -27t-26 -68q0 -39 26 -65q27 -27 68 -27q39 0 65.5 26.5t26.5 65.5z" />
    <glyph glyph-name="uni05AA" unicode="&#x5aa;" 
d="M188 -166q0 -205 -188 -205t-188 205v33h90v-10q0 -84 24 -113q23 -29 76 -29q49 0 72 29q25 31 24 113v10h90v-33z" />
    <glyph glyph-name="uni05AB" unicode="&#x5ab;" 
d="M152 1202h-123l-181 184l181 185h123l-181 -185z" />
    <glyph glyph-name="uni05AC" unicode="&#x5ac;" 
d="M131 1202h-262v86h176v260h86v-346z" />
    <glyph glyph-name="uni05AD" unicode="&#x5ad;" 
d="M96 -133q-6 -41 -6 -84q0 -104 39 -149.5t125 -45.5v-90q-133 6 -195 76q-59 68 -59 213q0 39 6 80h90z" />
    <glyph glyph-name="uni05AE" unicode="&#x5ae;" 
d="M-113 1440l31 57q82 -49 82 -143q0 -63 -31 -109q-31 -43 -84 -43q-45 0 -73 37q-25 33 -45 84q-14 37 -37 82q-18 37 -49 37q-63 0 -64 -88q0 -68 51 -88l-22 -64q-92 61 -92 152q0 63 34 106q37 45 88.5 45t79.5 -39q31 -43 47 -82q6 -14 18.5 -39.5t18.5 -39.5
q16 -39 45 -39q51 0 52 88q-1 59 -50 86z" />
    <glyph glyph-name="uni05AF" unicode="&#x5af;" 
d="M117 1319q0 -49 -33 -82q-35 -35 -84 -35t-84 35q-33 33 -33 82q0 51 33 84t84 33t84 -33t33 -84zM68 1319q0 68 -68 67.5t-68 -67.5q0 -68 68 -68t68 68z" />
    <glyph glyph-name="shevahebrew" unicode="&#x5b0;" horiz-adv-x="1366" 
d="M361 0v-505h48v208h185v-208h48v505h-48v-236h-185v236h-48zM969 -500v495h-265v-59h215v-151h-201v-58h201v-169h-223v-58h273z" />
    <glyph glyph-name="hatafsegolhebrew" unicode="&#x5b1;" horiz-adv-x="1366" 
d="M851 -445v453h-240v-55h195v-138h-182v-53h182v-154h-202v-53h247z" />
    <glyph glyph-name="hatafpatahhebrew" unicode="&#x5b2;" horiz-adv-x="1366" 
d="M646 -499v495h-265v-59h215v-151h-201v-58h201v-169h-223v-58h273zM969 -500v495h-265v-59h215v-151h-201v-58h201v-169h-223v-58h273z" />
    <glyph glyph-name="hatafqamatshebrew" unicode="&#x5b3;" horiz-adv-x="1593" 
d="M780 -255q0 114 52 185q54 75 151 75q58 0 105 -32q48 -31 72 -90t24 -133q0 -71 -23 -129q-25 -62 -76 -93q-47 -30 -102 -31q-59 1 -105 32q-50 35 -73 92q-25 59 -25 124zM839 -256q0 -81 36 -134q38 -57 108 -57q72 0 109 58q35 55 35 139q0 123 -69 175
q-33 25 -75 25q-72 0 -111 -62q-33 -54 -33 -144z" />
    <glyph glyph-name="hiriqhebrew" unicode="&#x5b4;" horiz-adv-x="1366" 
d="M749 -505v505h67v-505h-67z" />
    <glyph glyph-name="tserehebrew" unicode="&#x5b5;" horiz-adv-x="1366" 
d="M675 -508v216l-126 293h52l65 -152q17 -39 33 -87q16 45 36 90l64 149h50l-130 -293v-216h-44zM1142 -503v504h-230v-60h187v-154h-175v-59h175v-172h-194v-59h237z" />
    <glyph glyph-name="segolhebrew" unicode="&#x5b6;" horiz-adv-x="1546" 
d="M431 -505v506h67v-506h-67zM888 -503l-150 506h-55l-159 -506h58l45 154h162l44 -154h55zM775 -294h-132l40 138q16 59 29 105q7 -45 21 -97z" />
    <glyph glyph-name="patahhebrew" unicode="&#x5b7;" horiz-adv-x="1546" 
d="M923 -502l-173 504h-63l-184 -504h67l52 153h187l51 -153h63zM793 -294h-152l46 138q19 59 33 105q8 -45 24 -96z" />
    <glyph glyph-name="qamatshebrew" unicode="&#x5b8;" horiz-adv-x="1546" 
d="M206 0v-499h49v205h188v-205h49v499h-49v-233h-188v233h-49zM908 -502l-154 502h-57l-165 -502h60l47 153h168l45 -153h56zM792 -295h-137l42 138q3 12 30 104q6 -42 22 -96z" />
    <glyph glyph-name="holamhebrew" unicode="&#x5b9;" horiz-adv-x="399" 
d="M13 1387q0 109 47 177q50 72 140 72q54 0 97 -30.5t66 -87t23 -126.5q0 -69 -22 -124q-24 -60 -70 -90q-44 -29 -94 -29q-54 0 -97.5 31.5t-66.5 87.5t-23 119zM66 1385q0 -77 34 -128q37 -55 100 -55q65 0 101 56q31 53 31 134q0 119 -62 167q-32 24 -69 24
q-69 0 -104 -60q-31 -51 -31 -138z" />
    <glyph glyph-name="uni05BA" unicode="&#x5ba;" 
d="M-248 1276q0 31 24.5 55.5t57.5 24.5t57.5 -24.5t24.5 -55.5q0 -35 -24.5 -59.5t-57.5 -24.5t-57.5 24.5t-24.5 59.5z" />
    <glyph glyph-name="qubutshebrew" unicode="&#x5bb;" horiz-adv-x="1546" 
d="M861 2h46v-288q0 -67 -9 -106q-12 -54 -45 -83q-31 -28 -80 -28q-96 0 -123 94q-12 45 -12 123v288h44v-286q0 -54 6 -81q7 -42 32 -62q19 -16 50 -16q53 0 74 40q18 33 17 119v286zM354 1v-505h42v207h160v-207h42v505h-42v-236h-160v236h-42z" />
    <glyph glyph-name="dageshhebrew" unicode="&#x5bc;" horiz-adv-x="1546" 
d="M1023 0v-438h39v180h150v-180h39v438h-39v-205h-150v205h-39z" />
    <glyph glyph-name="uni05BD" unicode="&#x5bd;" 
d="M289 -133h104v-369h-104v369z" />
    <glyph glyph-name="uni05BE" unicode="&#x5be;" horiz-adv-x="780" 
d="M125 901v160h534v-160h-534z" />
    <glyph glyph-name="rafehebrew" unicode="&#x5bf;" 
d="M135 1192v104h473v-104h-473z" />
    <glyph glyph-name="uni05C0" unicode="&#x5c0;" horiz-adv-x="559" 
d="M211 -20v1300h141v-1300h-141z" />
    <glyph glyph-name="shindothebrew" unicode="&#x5c1;" 
 />
    <glyph glyph-name="sindothebrew" unicode="&#x5c2;" 
d="M-33 1276q0 31 24.5 55.5t57.5 24.5q35 0 60 -25q23 -23 22 -55q0 -37 -22 -59q-25 -25 -60 -25q-33 0 -57.5 24.5t-24.5 59.5z" />
    <glyph glyph-name="uni05C3" unicode="&#x5c3;" horiz-adv-x="565" 
d="M184 856v207h205v-207h-205zM184 0v205h205v-205h-205z" />
    <glyph glyph-name="uni05C4" unicode="&#x5c4;" 
d="M260 1276q0 31 24.5 55.5t57.5 24.5t57.5 -24.5t24.5 -55.5q0 -35 -24.5 -59.5t-57.5 -24.5t-57.5 24.5t-24.5 59.5z" />
    <glyph glyph-name="uni05C5" unicode="&#x5c5;" 
d="M-82 -205q0 35 25 60q23 23 57.5 22.5t56.5 -22.5q25 -25 25 -60q0 -33 -24.5 -57.5t-57.5 -24.5t-57.5 24.5t-24.5 57.5z" />
    <glyph glyph-name="uni05C6" unicode="&#x5c6;" horiz-adv-x="901" 
d="M176 883l66 -99q6 -18 20 -28q23 -23 55 -25q33 0 56 25q16 12 22 28l154 234q29 43 4 84q-25 43 -64 45q-41 2 -75 -39l-97 -143l-84 127q-8 23 -30.5 39t-48.5 16q-47 0 -70 -39q-4 -6 -8 -18q-68 -141 -76 -269q-8 -135 35 -252t141 -227q88 -100 252 -190t356 -152
q47 -14 82 20q33 33 25 76q-8 45 -57 62q-346 104 -526.5 296.5t-131.5 428.5z" />
    <glyph glyph-name="uni05C7" unicode="&#x5c7;" 
d="M201 -238h-142v-278h-116v278h-144v105h402v-105z" />
    <glyph glyph-name="alefhebrew" unicode="&#x5d0;" horiz-adv-x="1251" 
d="M530 0v1292h-483v174h1163v-174h-485v-1292h-195z" />
    <glyph glyph-name="bethebrew" unicode="&#x5d1;" horiz-adv-x="1478" 
d="M284 539l-192 -49q57 -231 214 -360.5t392 -129.5q453 0 610 375q78 184 78 393q0 475 -336 660q-162 88 -356 88q-215 0 -366.5 -110.5t-210.5 -315.5l190 -45q98 305 391 305q160 0 276.5 -75.5t166.5 -223.5q47 -135 47 -281q0 -401 -226 -534q-115 -70 -247 -70
q-349 0 -431 373z" />
    <glyph glyph-name="gimelhebrew" unicode="&#x5d2;" horiz-adv-x="1478" 
d="M1317 0v1466h-506q-170 0 -260 -20q-281 -66 -389 -356q-57 -152 -58 -349q0 -317 140 -510q115 -160 307 -206q102 -25 235 -25h531zM1122 172h-313q-256 0 -358 104q-147 145 -148 467q0 420 260 521q78 29 250 28h309v-1120z" />
    <glyph glyph-name="dalethebrew" unicode="&#x5d3;" horiz-adv-x="1366" 
d="M1267 496l-185 16q-25 -215 -206 -294q-100 -43 -226 -43q-233 0 -323 122q-41 57 -41 125q0 141 172 207q68 27 276 76q176 41 269 88q207 111 206 319q0 119 -66.5 213.5t-178.5 141.5q-121 49 -271 49q-342 0 -479 -207q-66 -102 -72 -231l187 -15q31 283 356 283
q133 0 221 -45q117 -55 117 -176q0 -113 -127 -172q-51 -25 -223 -62q-238 -55 -324 -94q-250 -115 -250 -358q0 -125 71 -226.5t188 -154.5q127 -57 282 -58q393 0 545 232q78 117 82 264z" />
    <glyph glyph-name="hehebrew" unicode="&#x5d4;" horiz-adv-x="1366" 
d="M582 0l-570 1466h211l381 -1065q47 -131 78 -239q33 115 78 239l397 1065h197l-574 -1466h-198z" />
    <glyph glyph-name="vavhebrew" unicode="&#x5d5;" horiz-adv-x="1478" 
d="M1118 1494h195v-848q0 -201 -39 -317q-51 -158 -193 -244q-131 -82 -342 -82q-410 0 -524 277q-55 133 -55 366v848h192v-845q0 -158 23 -238q33 -127 135 -184q86 -49 213 -49q233 0 322 120q74 100 73 351v845z" />
    <glyph glyph-name="zayinhebrew" unicode="&#x5d6;" horiz-adv-x="1251" 
d="M1205 -1l-3 181l-749 938q-79 99 -154 174h819v174h-1050v-174l913 -1120h-938l3 -173h1159z" />
    <glyph glyph-name="hethebrew" unicode="&#x5d7;" horiz-adv-x="1602" 
d="M41 444v-444h48v182h185v-182h48v444h-48v-208h-185v208h-48zM1561 0v1466h-195v-727l-727 727h-264l614 -594l-641 -872h256l522 741l240 -233v-508h195z" />
    <glyph glyph-name="tethebrew" unicode="&#x5d8;" horiz-adv-x="1366" 
d="M576 0v621l-565 845h236l288 -442q74 -113 150 -248q72 125 160 258l284 432h226l-584 -845v-621h-195z" />
    <glyph glyph-name="yodhebrew" unicode="&#x5d9;" horiz-adv-x="1478" 
d="M164 0v1466h194v-602h762v602h194v-1466h-194v690h-762v-690h-194z" />
    <glyph glyph-name="finalkafhebrew" unicode="&#x5da;" horiz-adv-x="1138" 
d="M1026 0v1466h-194v-1294h-720v-172h914z" />
    <glyph glyph-name="kafhebrew" unicode="&#x5db;" horiz-adv-x="1251" 
d="M1120 0v1466h-989v-174h795v-452h-688v-174h688v-666h194z" />
    <glyph glyph-name="lamedhebrew" unicode="&#x5dc;" horiz-adv-x="1366" 
d="M1290 0v1466h-196v-727l-726 727h-264l614 -594l-642 -872h256l522 741l240 -233v-508h196z" />
    <glyph glyph-name="finalmemhebrew" unicode="&#x5dd;" horiz-adv-x="1593" 
d="M95 715q0 340 178 551q190 227 525 227q201 0 364.5 -96.5t249.5 -271.5t86 -394q0 -213 -82 -383q-90 -188 -264 -282q-164 -90 -354 -91q-203 0 -367 97.5t-252 275.5q-84 172 -84 367zM296 711q0 -242 127 -400q137 -170 373 -170q246 0 381 176q121 162 120 414
q0 371 -237 520q-117 74 -260 74q-260 0 -389 -184q-115 -160 -115 -430z" />
    <glyph glyph-name="memhebrew" unicode="&#x5de;" horiz-adv-x="1478" 
d="M1317 0v1466h-199l-770 -1151v1151h-187v-1466h199l770 1153v-1153h187z" />
    <glyph glyph-name="finalnunhebrew" unicode="&#x5df;" horiz-adv-x="569" 
d="M190 0v1466h195v-1466h-195z" />
    <glyph glyph-name="nunhebrew" unicode="&#x5e0;" horiz-adv-x="1366" 
d="M1237 0v1466h-551q-315 0 -428 -182q-57 -92 -57 -192q0 -211 205 -312q-129 -39 -203 -131t-74 -223q0 -215 152 -330q129 -96 397 -96h559zM1043 850h-318q-127 0 -184 16q-150 45 -150 201q0 164 136 205q66 20 223 20h293v-442zM1043 172h-365q-94 0 -133 8
q-133 25 -184 121q-31 53 -31 125q0 174 160 227q74 25 215 25h338v-506z" />
    <glyph glyph-name="samekhhebrew" unicode="&#x5e1;" horiz-adv-x="1366" 
d="M8 0l567 764l-499 702h231l266 -376q84 -119 117 -181q45 74 117 168l295 389h211l-514 -692l555 -774h-242l-369 522q-25 37 -63 99q-53 -86 -70 -109l-368 -512h-234z" />
    <glyph glyph-name="ayinhebrew" unicode="&#x5e2;" horiz-adv-x="1593" 
d="M742 612v173h-620v-543q303 -241 606 -242q214 0 384 86q173 89 276 287q90 174 90 389q0 210 -84 387q-94 198 -262 288q-170 91 -390 91q-329 0 -486 -195q-74 -92 -114 -239l176 -49q62 211 222 278q92 39 202 39q257 0 388 -147q147 -165 148 -441q1 -396 -264 -524
q-130 -63 -276 -63q-106 0 -224 40q-126 43 -204 111v274h432z" />
    <glyph glyph-name="finalpehebrew" unicode="&#x5e3;" horiz-adv-x="1366" 
d="M1243 0v1466h-553q-143 0 -223 -14q-215 -37 -299 -211q-45 -90 -45 -199q0 -446 548 -446h377v-596h195zM1048 768h-379q-346 0 -346 268q0 86 44 153.5t124 90.5q49 12 182 12h375v-524z" />
    <glyph glyph-name="pehebrew" unicode="&#x5e4;" horiz-adv-x="1366" 
d="M1243 0v1466h-553q-143 0 -223 -14q-215 -37 -299 -211q-45 -90 -45 -199q0 -446 548 -446h377v-596h195zM1048 768h-379q-346 0 -346 268q0 86 44 153.5t124 90.5q49 12 182 12h375v-524z" />
    <glyph glyph-name="finaltsadihebrew" unicode="&#x5e5;" horiz-adv-x="1555" 
d="M661 154l-51 6q-8 -66 -56 -88q-28 -11 -61 -11q-66 0 -88 35q-12 17 -12 36q0 41 47 62q12 6 75 23q55 15 73 25q59 35 56 95q0 35 -18 63q-17 27 -48 40q-33 15 -74 15q-95 0 -130 -61q-19 -30 -20 -67l51 -5q8 83 96 83q37 0 60 -13q34 -17 33 -52q-2 -31 -34 -50
q-10 -6 -62 -19q-64 -16 -88 -28q-66 -30 -69 -105q0 -36 20 -67q20 -29 52 -45q35 -16 77 -18q106 0 149 69q21 35 22 77zM679 0v1292h-483v174h1163v-174h-485v-1292h-195z" />
    <glyph glyph-name="tsadihebrew" unicode="&#x5e6;" horiz-adv-x="1705" 
d="M154 0v1466h292l346 -1038q44 -129 70 -217q28 90 78 235l352 1020h260v-1466h-186v1227l-426 -1227h-174l-424 1247v-1247h-188z" />
    <glyph glyph-name="qofhebrew" unicode="&#x5e7;" horiz-adv-x="1366" 
d="M1230 0v1466h-1060v-174h866v-448h-812v-172h812v-500h-900v-172h1094z" />
    <glyph glyph-name="reshhebrew" unicode="&#x5e8;" horiz-adv-x="1478" 
d="M1385 0v1466h-651q-168 0 -258 -26q-133 -39 -203 -154q-59 -98 -59 -219q0 -344 412 -399q-78 -39 -117 -74q-88 -80 -162 -195l-254 -399h244l194 305q66 102 107 160q80 106 131 139q45 31 88 39q31 8 109 8h225v-651h194zM1191 819h-418q-246 0 -321 115
q-39 61 -39 133q0 238 313 238h465v-486z" />
    <glyph glyph-name="shinhebrew" unicode="&#x5e9;" horiz-adv-x="1366" 
d="M1369 0l-563 1466h-209l-600 -1466h221l170 444h615l160 -444h206zM946 602h-496l151 406q72 188 105 305q29 -147 80 -281z" />
    <glyph glyph-name="tavhebrew" unicode="&#x5ea;" horiz-adv-x="569" 
d="M403 0v205h-204v-205q0 -217 168 -291l49 78q-109 47 -115 213h102z" />
    <glyph glyph-name="vavvavhebrew" unicode="&#x5f0;" horiz-adv-x="1005" 
d="M614 778l295 221q25 18 31 45q6 31 -2 50q-10 23 -28.5 39t-45.5 16q-29 0 -53 -19l-279 -208q-188 137 -268 184q-4 12 -10 24q-43 31 -84 11t-47 -66q-6 -43 33 -76q78 -59 175 -131.5t120 -89.5v-696q0 -53 41 -74q41 -20 81 0q41 20 41 74v696zM1120 778l295 221
q29 20 33 45q6 27 -4 49.5t-28.5 39t-47.5 16.5q-27 0 -51 -19l-279 -208q-188 137 -268 184q-4 12 -10 24q-41 31 -82 11q-43 -20 -49 -66q-6 -43 33 -76q78 -59 175 -130.5t119 -90.5v-696q0 -53 41 -73.5t82 0t41 73.5v696z" />
    <glyph glyph-name="vavyodhebrew" unicode="&#x5f1;" horiz-adv-x="1005" 
d="M412 246l245 368q4 4 5 7l258 387q18 18 22 47q4 31 -16 59q-23 33 -58 35q-31 2 -51 -12l-751 -301q-49 -18 -52.5 -65.5t29.5 -76.5t84 -10l520 209l-104 -160l-365 -127q-49 -18 -55 -63q-6 -47 27 -76q35 -31 81 -16l158 55l-244 -367q-23 -18 -22 -49
q-2 -35 20.5 -61.5t42.5 -28.5q33 -8 64 12l639 240q49 14 53 61q2 49 -29 78q-35 29 -82 12zM1120 778l295 221q29 20 33 45q6 27 -4 49.5t-28.5 39t-47.5 16.5q-27 0 -51 -19l-279 -208q-188 137 -268 184q-4 12 -10 24q-41 31 -82 11q-43 -20 -49 -66q-6 -43 33 -76
q78 -59 175 -130.5t119 -90.5v-696q0 -53 41 -73.5t82 0t41 73.5v696z" />
    <glyph glyph-name="yodyodhebrew" unicode="&#x5f2;" horiz-adv-x="1005" 
d="M412 246l245 368q4 4 5 7l258 387q18 18 22 47q4 31 -16 59q-23 33 -58 35q-31 2 -51 -12l-751 -301q-49 -18 -52.5 -65.5t29.5 -76.5t84 -10l520 209l-104 -160l-365 -127q-49 -18 -55 -63q-6 -47 27 -76q35 -31 81 -16l158 55l-244 -367q-23 -18 -22 -49
q-2 -35 20.5 -61.5t42.5 -28.5q33 -8 64 12l639 240q49 14 53 61q2 49 -29 78q-35 29 -82 12zM918 246l245 368q4 4 4 7l258 387q20 20 23 47q4 31 -16 59q-23 33 -58 35q-31 2 -51 -12l-752 -301q-49 -18 -53 -66q-2 -45 33 -76q33 -29 82 -10l520 209l-104 -160l-365 -127
q-49 -18 -55 -63q-6 -47 26 -76q35 -31 82 -16l160 55l-246 -367q-23 -18 -22 -49q-2 -35 20.5 -61.5t42.5 -28.5q33 -8 64 12l639 240q51 16 55 61q2 47 -31 78q-35 29 -82 12z" />
    <glyph glyph-name="gereshhebrew" unicode="&#x5f3;" horiz-adv-x="1933" 
d="M412 0l-388 1466h198l222 -960q40 -168 64 -301l66 270l278 991h234l210 -741q80 -283 114 -520q24 115 74 319l228 942h198l-404 -1466h-186l-310 1116q-38 145 -44 172q-24 -96 -44 -172l-312 -1116h-198z" />
    <glyph glyph-name="gershayimhebrew" unicode="&#x5f4;" horiz-adv-x="849" 
d="M461 676l98 385h205l-182 -385h-121zM90 676l98 385h205l-182 -385h-121z" />
    <glyph glyph-name="zerowidthspace" unicode="&#x200b;" 
 />
    <glyph glyph-name="zerowidthnonjoiner" unicode="&#x200c;" 
 />
    <glyph glyph-name="zerowidthjoiner" unicode="&#x200d;" 
 />
    <glyph glyph-name="uni200E" unicode="&#x200e;" 
d="M430 1198l-217 -215l-49 49l137 131h-266v-1437h-72v1509h338l-137 129l49 49z" />
    <glyph glyph-name="uni200F" unicode="&#x200f;" 
d="M35 -274h-72v1437h-264l135 -131l-47 -49l-217 215l217 215l47 -49l-135 -129h336v-1509z" />
    <glyph glyph-name="endash" unicode="&#x2013;" horiz-adv-x="780" 
d="M125 901v160h534v-160h-534z" />
    <glyph glyph-name="emdash" unicode="&#x2014;" horiz-adv-x="1017" 
d="M125 451v159h772v-159h-772z" />
    <glyph glyph-name="quoteleft" unicode="&#x2018;" horiz-adv-x="423" 
d="M305 791v-209h-194v163q0 121 30 195q31 74 135 121l43 -70q-109 -43 -108 -200h94z" />
    <glyph glyph-name="quoteright" unicode="&#x2019;" horiz-adv-x="423" 
d="M125 852v209h194v-164q0 -139 -36 -205q-39 -70 -129 -110l-43 69q106 45 106 201h-92z" />
    <glyph glyph-name="quotedblleft" unicode="&#x201c;" horiz-adv-x="733" 
d="M303 791v-209h-192v163q0 143 34 205q41 72 129 111l45 -70q-111 -45 -110 -200h94zM612 791v-209h-192v163q0 119 31 195q31 74 133 121l45 -70q-111 -47 -111 -200h94z" />
    <glyph glyph-name="quotedblright" unicode="&#x201d;" horiz-adv-x="735" 
d="M127 852v209h195v-164q0 -137 -37 -205q-39 -70 -129 -110l-45 69q109 47 108 201h-92zM438 852v209h193v-164q0 -137 -37 -205q-39 -70 -129 -110l-43 69q111 45 110 201h-94z" />
    <glyph glyph-name="quotedblbase" unicode="&#x201e;" horiz-adv-x="735" 
d="M127 0v209h195v-164q0 -125 -33 -195q-35 -76 -133 -120l-45 69q109 43 108 201h-92zM438 0v209h193v-164q0 -137 -37 -205q-39 -70 -127 -110l-45 69q111 43 110 201h-94z" />
    <glyph glyph-name="ellipsis" unicode="&#x2026;" horiz-adv-x="2048" 
d="M240 0v205h204v-205h-204zM922 0v205h204v-205h-204zM1604 0v205h204v-205h-204z" />
    <glyph glyph-name="sheqelhebrew" unicode="&#x20aa;" horiz-adv-x="1665" 
d="M1118 344h-168v430q0 76 -35 111q-33 33 -112 33h-479v-918h-168v1061h680q141 0 213 -74q70 -72 69 -196v-447zM553 0v717h168v-574h477q90 0 119 39q31 43 31 105v774h168v-791q0 -127 -74 -198q-76 -72 -209 -72h-680z" />
    <glyph glyph-name="uni25CC" unicode="&#x25cc;" horiz-adv-x="1212" 
d="M981 856q0 -49 -49 -49q-51 0 -51 49q0 51 51 51q49 0 49 -51zM831 954q0 -49 -47 -49q-53 0 -53 49q0 51 53 52q47 -1 47 -52zM1079 709q0 -51 -51 -52q-49 0 -49 52q0 49 51 49q49 0 49 -49zM1114 535q0 -49 -47 -50q-51 0 -51 50q0 49 51 49q47 0 47 -49zM657 991
q0 -51 -49 -51q-51 0 -51 51q0 49 51 49q49 0 49 -49zM485 954q0 -49 -51 -49q-49 0 -49 49q0 51 49 52q51 -1 51 -52zM1079 360q0 -49 -51 -49q-49 0 -49 49q0 51 49 52q51 -1 51 -52zM338 856q0 -49 -51 -49q-49 0 -49 47q0 53 49 53q51 0 51 -51zM981 211q0 -49 -49 -49
q-51 0 -51 49q0 51 51 51q49 0 49 -51zM831 113q0 -47 -47 -47q-53 0 -53 47q0 51 53 51q47 0 47 -51zM238 709q0 -51 -48 -52q-53 0 -53 52q0 49 51 49q50 0 50 -49zM203 535q0 -49 -49 -50q-51 0 -52 50q0 49 52 49q49 0 49 -49zM657 80q0 -51 -49 -51q-51 0 -51 51
q0 49 51 49q49 0 49 -49zM238 360q0 -49 -50 -49q-51 0 -51 49q0 51 51 52q50 -1 50 -52zM485 117q0 -51 -51 -51q-49 0 -49 47q0 51 49 51q51 0 51 -47zM338 211q0 -49 -51 -49q-49 0 -49 49q0 51 49 51q51 0 51 -51z" />
    <glyph glyph-name="uniFB1D" unicode="&#xfb1d;" horiz-adv-x="1366" 
d="M646 -499v495h-265v-59h215v-151h-201v-58h201v-169h-223v-58h273zM969 -500v495h-265v-59h215v-151h-201v-58h201v-169h-223v-58h273zM576 0v621l-565 845h236l288 -442q74 -113 150 -248q72 125 160 258l284 432h226l-584 -845v-621h-195z" />
    <glyph glyph-name="uniFB1E" unicode="&#xfb1e;" 
d="M297 1509q-14 -125 -92 -190q-82 -68 -206 -68t-204 68q-76 63 -90 190h123q27 -135 172 -135q152 0 172 135h125z" />
    <glyph glyph-name="doubleyodpatahhebrew" unicode="&#xfb1f;" horiz-adv-x="1499" 
d="M530 -276v104h498v-104h-498zM412 246l245 368q4 4 5 7l258 387q18 18 22 47q4 31 -16 59q-23 33 -58 35q-31 2 -51 -12l-751 -301q-49 -18 -52.5 -65.5t29.5 -76.5t84 -10l520 209l-104 -160l-365 -127q-49 -18 -55 -63q-6 -47 27 -76q35 -31 81 -16l158 55l-244 -367
q-23 -18 -22 -49q-2 -35 20.5 -61.5t42.5 -28.5q33 -8 64 12l639 240q49 14 53 61q2 49 -29 78q-35 29 -82 12zM918 246l245 368q4 4 4 7l258 387q20 20 23 47q4 31 -16 59q-23 33 -58 35q-31 2 -51 -12l-752 -301q-49 -18 -53 -66q-2 -45 33 -76q33 -29 82 -10l520 209
l-104 -160l-365 -127q-49 -18 -55 -63q-6 -47 26 -76q35 -31 82 -16l160 55l-246 -367q-23 -18 -22 -49q-2 -35 20.5 -61.5t42.5 -28.5q33 -8 64 12l639 240q51 16 55 61q2 47 -31 78q-35 29 -82 12z" />
    <glyph glyph-name="uniFB20" unicode="&#xfb20;" horiz-adv-x="1656" 
d="M879 600v173h-620v-543q287 -229 606 -230q213 0 383 86q184 94 276 275q90 174 91 389q0 213 -84 387q-92 197 -262 288t-390 91q-334 0 -487 -195q-74 -92 -113 -239l176 -49q61 211 222 278q92 39 202 39q254 0 387 -147q147 -164 148 -441q0 -393 -264 -524
q-129 -63 -275 -63q-106 0 -225 40q-125 43 -203 111v274h432z" />
    <glyph glyph-name="uniFB21" unicode="&#xfb21;" horiz-adv-x="1060" 
d="M401 621l88 -132l-217 -110zM489 782l185 346q25 45 -2 84q-25 37 -72 37q-43 0 -70 -43l-145 -270l-113 170q-16 29 -43 35q-33 6 -49 0t-39 -29q-18 -18 -18 -43q0 -29 14 -53l162 -242l-293 -547q-27 -45 17 -92q43 -43 92 -20l467 235l211 -313q16 -29 43 -35
q33 -6 49 0q18 6 39 29q18 18 18 43q0 29 -14 53l-199 297l291 147q47 20 47 70q0 47 -37 74t-84 4l-309 -158z" />
    <glyph glyph-name="uniFB22" unicode="&#xfb22;" horiz-adv-x="1060" 
d="M942 98v951q2 27 -4 45q-10 29 -33 41q-37 25 -80 4q-12 -4 -24 -17l-635 -475q-14 -8 -23 -18q-23 -25 -22 -56q0 -31 22 -55q8 -10 23 -18l635 -475q16 -16 24 -19q41 -20 80 6q23 12 33 39q6 20 4 47zM778 246l-436 327l436 328v-655z" />
    <glyph glyph-name="uniFB23" unicode="&#xfb23;" horiz-adv-x="1060" 
d="M778 948v-74l-602 -225q-49 -14 -53 -61q-2 -49 29 -78q35 -29 81 -12l545 204v-73l-602 -226q-49 -14 -53 -61q-2 -49 29 -78q35 -29 81 -12l545 205v-375q0 -53 41 -73.5t82 0t41 73.5v479v21v225v20v226q0 16 -2 24q-2 39 -33 56q-27 20 -57 14q-12 0 -33 -12
l-641 -240q-49 -14 -53 -61q-2 -49 29 -78q35 -31 81 -13z" />
    <glyph glyph-name="uniFB24" unicode="&#xfb24;" horiz-adv-x="1060" 
d="M655 768l-411 158q-45 18 -82 -13q-35 -31 -31 -75q2 -45 53 -64l598 -229q-10 -72 -37 -137q-23 -59 -65 -113q-43 -57 -102 -82q-63 -29 -150 -37q-80 -8 -199 17q-29 6 -53 -7q-27 -12 -35 -34q-10 -23 -10 -48q0 -23 19 -45q16 -20 49 -26q221 -45 383 2
q158 47 227 160q74 119 113 268q39 143 32 317q-4 111 -4 320q0 51 -43 69t-82 -4q-37 -23 -37 -73q0 -6 1.5 -21.5t2.5 -40t2 -47t3 -68t2 -63.5l-189 289q-25 41 -73 37q-49 -2 -68 -43q-18 -39 2 -84z" />
    <glyph glyph-name="uniFB25" unicode="&#xfb25;" horiz-adv-x="1060" 
d="M412 246l516 774q14 25 14 53q0 25 -18 43q-20 23 -39 29q-23 10 -49 0q-29 -10 -43 -35l-648 -971q-23 -18 -22 -49q-2 -35 20.5 -61.5t42.5 -28.5q33 -8 64 12l639 240q49 14 53 61q2 49 -29 78q-35 29 -82 12z" />
    <glyph glyph-name="uniFB26" unicode="&#xfb26;" horiz-adv-x="1060" 
d="M780 1094l-84 -127l-88 129q-6 18 -20 30q-23 23 -56 23t-55 -23q-14 -10 -20 -30l-88 -129l-97 143q-14 25 -43 35q-27 10 -49 0q-16 -6 -39 -29q-18 -18 -18 -43q0 -29 14 -53l156 -232q6 -18 20 -30q23 -23 56 -23t55 23q16 12 22 30l86 132l86 -132q4 -16 23 -30
q23 -23 55 -23q33 0 56 23q14 10 20 30l57 84q35 -256 -147 -444q-188 -195 -496 -266q-31 -6 -47 -29t-16 -45q0 -25 10 -47q10 -23 35 -35q20 -10 55 -4q219 51 391 160q174 109 269 250q92 139 114 315q20 170 -57 360q0 2 -3 9.5t-5 9.5q-23 43 -72 43q-29 0 -45 -14
q-27 -16 -35 -41z" />
    <glyph glyph-name="uniFB27" unicode="&#xfb27;" horiz-adv-x="1060" 
d="M451 655l327 246v-246h-327zM217 492h561v-410q0 -51 41 -71.5t82 0t41 71.5v967q2 27 -4 45q-10 29 -33 41q-37 25 -80 4q-12 -4 -24 -17l-635 -475q-20 -10 -29 -26q-31 -43 -4 -89q12 -23 35 -32q26 -14 49 -8z" />
    <glyph glyph-name="uniFB28" unicode="&#xfb28;" horiz-adv-x="1060" 
d="M532 426l261 -389q16 -29 43 -35q33 -6 49 0q18 6 39 29q18 18 18 43q0 29 -14 53l-297 446l297 447q29 45 6 84q-25 43 -68 45q-39 2 -73 -39l-261 -389l-260 389q-16 29 -43 35q-33 6 -49 0t-39 -29q-18 -18 -18 -43q0 -29 14 -53l297 -447l-297 -446q-29 -45 -6 -84
q25 -41 68 -43q39 -2 73 37z" />
    <glyph glyph-name="uniFB29" unicode="&#xfb29;" horiz-adv-x="1191" 
d="M1081 258h-966v168h397v399h170v-399h399v-168z" />
    <glyph glyph-name="shinshindothebrew" unicode="&#xfb2a;" horiz-adv-x="1558" 
d="M14 561v-534h60v220h241v-220h60v534h-60v-252h-241v252h-60zM1549 498l-185 16q-25 -215 -206 -294q-100 -43 -226 -43q-233 0 -323 122q-41 57 -41 125q0 141 172 207q68 27 276 76q176 41 269 88q207 111 206 319q0 119 -66.5 213.5t-178.5 141.5q-121 49 -271 49
q-342 0 -479 -207q-66 -102 -72 -231l187 -15q31 283 356 283q133 0 221 -45q117 -55 117 -176q0 -113 -127 -172q-51 -25 -223 -62q-238 -55 -324 -94q-250 -115 -250 -358q0 -125 71 -226.5t188 -154.5q127 -57 282 -58q393 0 545 232q78 117 82 264z" />
    <glyph glyph-name="shinsindothebrew" unicode="&#xfb2b;" horiz-adv-x="1366" 
d="M1267 496l-185 16q-25 -215 -206 -294q-100 -43 -226 -43q-233 0 -323 122q-41 57 -41 125q0 141 172 207q68 27 276 76q176 41 269 88q207 111 206 319q0 119 -66.5 213.5t-178.5 141.5q-121 49 -271 49q-342 0 -479 -207q-66 -102 -72 -231l187 -15q31 283 356 283
q133 0 221 -45q117 -55 117 -176q0 -113 -127 -172q-51 -25 -223 -62q-238 -55 -324 -94q-250 -115 -250 -358q0 -125 71 -226.5t188 -154.5q127 -57 282 -58q393 0 545 232q78 117 82 264z" />
    <glyph glyph-name="shindageshshindothebrew" unicode="&#xfb2c;" horiz-adv-x="1828" 
d="M874 0v-499h49v205h188v-205h49v499h-49v-233h-188v233h-49zM1652 -349l-65 5q-8 -70 -73 -95q-36 -13 -81 -13q-85 0 -115 38q-15 18 -14 41q-1 47 60 67q25 8 99 24q68 15 95 29q74 36 73 103q0 40 -23 69q-23 30 -63 45q-44 17 -97 17q-122 0 -170 -68
q-24 -33 -26 -74l67 -5q11 90 126 91q43 1 79 -14q42 -18 42 -57q0 -37 -46 -56q-10 -4 -79 -19q-84 -18 -116 -31q-88 -37 -88 -116q0 -40 25 -73q25 -31 67 -49q45 -19 100 -20q135 0 194 76q29 37 29 85zM146 555v-534h61v220h240v-220h61v534h-61v-252h-240v252h-61z
M1682 492l-185 16q-25 -215 -206 -294q-100 -43 -226 -43q-233 0 -323 122q-41 57 -41 125q0 141 172 207q68 27 276 76q176 41 269 88q207 111 206 319q0 119 -66.5 213.5t-178.5 141.5q-121 49 -271 49q-342 0 -479 -207q-66 -102 -72 -231l187 -15q31 283 356 283
q133 0 221 -45q117 -55 117 -176q0 -113 -127 -172q-51 -25 -223 -62q-238 -55 -324 -94q-250 -115 -250 -358q0 -125 71 -226.5t188 -154.5q127 -57 282 -58q393 0 545 232q78 117 82 264z" />
    <glyph glyph-name="shindageshsindothebrew" unicode="&#xfb2d;" horiz-adv-x="1366" 
d="M1349 -374l-69 6q-9 -76 -77 -103q-38 -15 -85 -15q-87 0 -121 42q-15 20 -15 44q0 50 64 73q26 9 104 26q65 15 100 31q78 39 77 112q0 42 -24.5 75t-66.5 49q-46 18 -102 18q-128 0 -179 -73q-25 -36 -27 -81l70 -5q12 99 133 99q50 0 83 -16q44 -19 44 -61
q0 -40 -48 -61q-19 -8 -83 -21q-89 -20 -122 -33q-93 -41 -93 -126q0 -44 26.5 -79.5t70.5 -53.5q47 -20 105 -21q148 0 204 82q30 41 31 92zM1315 471l-185 16q-25 -215 -206 -294q-100 -43 -226 -43q-233 0 -323 122q-41 57 -41 125q0 141 172 207q68 27 276 76
q176 41 269 88q207 111 206 319q0 119 -66.5 213.5t-178.5 141.5q-121 49 -271 49q-342 0 -479 -207q-66 -102 -72 -231l187 -15q31 283 356 283q133 0 221 -45q117 -55 117 -176q0 -113 -127 -172q-51 -25 -223 -62q-238 -55 -324 -94q-250 -115 -250 -358
q0 -125 71 -226.5t188 -154.5q127 -57 282 -58q393 0 545 232q78 117 82 264z" />
    <glyph glyph-name="uniFB2E" unicode="&#xfb2e;" horiz-adv-x="1555" 
d="M661 154l-51 6q-8 -66 -56 -88q-28 -11 -61 -11q-66 0 -88 35q-12 17 -12 36q0 41 47 62q12 6 75 23q55 15 73 25q59 35 56 95q0 35 -18 63q-17 27 -48 40q-33 15 -74 15q-95 0 -130 -61q-19 -30 -20 -67l51 -5q8 83 96 83q37 0 60 -13q34 -17 33 -52q-2 -31 -34 -50
q-10 -6 -62 -19q-64 -16 -88 -28q-66 -30 -69 -105q0 -36 20 -67q20 -29 52 -45q35 -16 77 -18q106 0 149 69q21 35 22 77zM679 0v1292h-483v174h1163v-174h-485v-1292h-195z" />
    <glyph glyph-name="uniFB2F" unicode="&#xfb2f;" horiz-adv-x="991" 
d="M206 0v-499h49v205h188v-205h49v499h-49v-233h-188v233h-49zM908 -502l-154 502h-57l-165 -502h60l47 153h168l45 -153h56zM792 -295h-137l42 138q3 12 30 104q6 -42 22 -96zM344 676l98 385h205l-182 -385h-121z" />
    <glyph glyph-name="uniFB30" unicode="&#xfb30;" horiz-adv-x="1555" 
d="M661 154l-51 6q-8 -66 -56 -88q-28 -11 -61 -11q-66 0 -88 35q-12 17 -12 36q0 41 47 62q12 6 75 23q55 15 73 25q59 35 56 95q0 35 -18 63q-17 27 -48 40q-33 15 -74 15q-95 0 -130 -61q-19 -30 -20 -67l51 -5q8 83 96 83q37 0 60 -13q34 -17 33 -52q-2 -31 -34 -50
q-10 -6 -62 -19q-64 -16 -88 -28q-66 -30 -69 -105q0 -36 20 -67q20 -29 52 -45q35 -16 77 -18q106 0 149 69q21 35 22 77zM679 0v1292h-483v174h1163v-174h-485v-1292h-195z" />
    <glyph glyph-name="betdageshhebrew" unicode="&#xfb31;" horiz-adv-x="1366" 
d="M1237 0v1466h-551q-315 0 -428 -182q-57 -92 -57 -192q0 -211 205 -312q-129 -39 -203 -131t-74 -223q0 -215 152 -330q129 -96 397 -96h559zM1043 850h-318q-127 0 -184 16q-150 45 -150 201q0 164 136 205q66 20 223 20h293v-442zM1043 172h-365q-94 0 -133 8
q-133 25 -184 121q-31 53 -31 125q0 174 160 227q74 25 215 25h338v-506z" />
    <glyph glyph-name="gimeldageshhebrew" unicode="&#xfb32;" horiz-adv-x="1647" 
d="M32 441v-438h39v180h150v-180h39v438h-39v-205h-150v205h-39zM879 600v173h-620v-543q287 -229 606 -230q213 0 383 86q184 94 276 275q90 174 91 389q0 213 -84 387q-92 197 -262 288t-390 91q-334 0 -487 -195q-74 -92 -113 -239l176 -49q61 211 222 278q92 39 202 39
q254 0 387 -147q147 -164 148 -441q0 -393 -264 -524q-129 -63 -275 -63q-106 0 -225 40q-125 43 -203 111v274h432z" />
    <glyph glyph-name="daletdageshhebrew" unicode="&#xfb33;" horiz-adv-x="1534" 
d="M36 448v-444h49v182h184v-182h49v444h-49v-208h-184v208h-49zM1498 0v1466h-506q-170 0 -260 -20q-281 -66 -389 -356q-57 -152 -58 -349q0 -317 140 -510q115 -160 307 -206q102 -25 235 -25h531zM1303 172h-313q-256 0 -358 104q-147 145 -148 467q0 420 260 521
q78 29 250 28h309v-1120z" />
    <glyph glyph-name="hedageshhebrew" unicode="&#xfb34;" horiz-adv-x="1466" 
d="M31 441v-438h39v180h149v-180h39v438h-39v-205h-149v205h-39zM284 0v1466h194v-602h762v602h195v-1466h-195v690h-762v-690h-194z" />
    <glyph glyph-name="vavdageshhebrew" unicode="&#xfb35;" horiz-adv-x="368" 
d="M289 850h53v-266q0 -63 -11 -99q-14 -50 -52 -77q-36 -26 -93 -26q-111 0 -142 87q-15 42 -15 115v266h52v-265q0 -50 6 -75q9 -39 37 -57q23 -16 58 -16q63 0 87 38q20 31 20 110v265z" />
    <glyph glyph-name="zayindageshhebrew" unicode="&#xfb36;" horiz-adv-x="1251" 
d="M1228 -529l-2 62l-276 323q-29 34 -56 60h302v60h-388v-60l337 -386h-346l1 -59h428zM1175 11l7 169l-749 938q-79 99 -154 174h819v174h-1050v-174l913 -1120h-938l3 -173z" />
    <glyph glyph-name="tetdageshhebrew" unicode="&#xfb38;" horiz-adv-x="1555" 
d="M1233 -515v454h-159v61h383v-61h-160v-454h-64zM581 0v1292h-483v174h1163v-174h-485v-1292h-195z" />
    <glyph glyph-name="yoddageshhebrew" unicode="&#xfb39;" horiz-adv-x="1366" 
d="M959 -492v210l-133 283h55l68 -147q17 -38 35 -84q16 43 37 87l67 144h53l-137 -283v-210h-45zM576 0v621l-565 845h236l288 -442q70 -107 150 -248q68 118 160 258l284 432h226l-584 -845v-621h-195z" />
    <glyph glyph-name="finalkafdageshhebrew" unicode="&#xfb3a;" horiz-adv-x="1602" 
d="M41 444v-444h48v182h185v-182h48v444h-48v-208h-185v208h-48zM1561 0v1466h-195v-727l-727 727h-264l614 -594l-641 -872h256l522 741l240 -233v-508h195z" />
    <glyph glyph-name="kafdageshhebrew" unicode="&#xfb3b;" horiz-adv-x="1602" 
d="M41 444v-444h48v182h185v-182h48v444h-48v-208h-185v208h-48zM1561 0v1466h-195v-727l-727 727h-264l614 -594l-641 -872h256l522 741l240 -233v-508h195z" />
    <glyph glyph-name="lameddageshhebrew" unicode="&#xfb3c;" horiz-adv-x="1138" 
d="M1009 -541v478h-58v-422h-217v-56h275zM1026 0v1466h-194v-1294h-720v-172h914z" />
    <glyph glyph-name="memdageshhebrew" unicode="&#xfb3e;" horiz-adv-x="1705" 
d="M1058 -502v476h102l122 -337q15 -42 24 -71q10 30 27 77l123 331h91v-476h-65v398l-149 -398h-61l-148 405v-405h-66zM152 0v1466h292l347 -1038q43 -129 69 -217q29 90 78 235l352 1020h260v-1466h-186v1227l-426 -1227h-174l-424 1247v-1247h-188z" />
    <glyph glyph-name="nundageshhebrew" unicode="&#xfb40;" horiz-adv-x="1478" 
d="M1457 -537v485h-74l-285 -381v381h-69v-485h73l285 381v-381h70zM1262 0v1466h-199l-770 -1151v1151h-187v-1466h199l770 1153v-1153h187z" />
    <glyph glyph-name="samekhdageshhebrew" unicode="&#xfb41;" horiz-adv-x="1366" 
d="M1349 -374l-69 6q-9 -76 -77 -103q-38 -15 -85 -15q-87 0 -121 42q-15 20 -15 44q0 50 64 73q26 9 104 26q65 15 100 31q78 39 77 112q0 42 -24.5 75t-66.5 49q-46 18 -102 18q-128 0 -179 -73q-25 -36 -27 -81l70 -5q12 99 133 99q50 0 83 -16q44 -19 44 -61
q0 -40 -48 -61q-19 -8 -83 -21q-89 -20 -122 -33q-93 -41 -93 -126q0 -44 26.5 -79.5t70.5 -53.5q47 -20 105 -21q148 0 204 82q30 41 31 92zM1315 471l-185 16q-25 -215 -206 -294q-100 -43 -226 -43q-233 0 -323 122q-41 57 -41 125q0 141 172 207q68 27 276 76
q176 41 269 88q207 111 206 319q0 119 -66.5 213.5t-178.5 141.5q-121 49 -271 49q-342 0 -479 -207q-66 -102 -72 -231l187 -15q31 283 356 283q133 0 221 -45q117 -55 117 -176q0 -113 -127 -172q-51 -25 -223 -62q-238 -55 -324 -94q-250 -115 -250 -358
q0 -125 71 -226.5t188 -154.5q127 -57 282 -58q393 0 545 232q78 117 82 264z" />
    <glyph glyph-name="uniFB43" unicode="&#xfb43;" horiz-adv-x="1251" 
d="M1120 0v1466h-989v-174h795v-452h-688v-174h688v-666h194z" />
    <glyph glyph-name="pedageshhebrew" unicode="&#xfb44;" horiz-adv-x="1251" 
d="M1120 0v1466h-989v-174h795v-452h-688v-174h688v-666h194z" />
    <glyph glyph-name="tsadidageshhebrew" unicode="&#xfb46;" horiz-adv-x="1775" 
d="M1042 -348l-61 -4q-8 -77 -57 -99q-28 -13 -64 -13q-72 0 -91 39q-12 24 -12 42q1 42 48 70q13 7 78 26q57 18 75 28q60 40 58 108q-1 37 -19 71q-16 31 -49 47q-34 17 -77 16q-95 1 -134 -69q-18 -32 -20 -76l52 -5q9 91 100 94q33 1 62 -15q34 -18 33 -60
q0 -32 -35 -56q-9 -6 -63 -22q-67 -17 -91 -31q-74 -39 -71 -119q0 -47 20 -77q24 -37 53 -51q41 -20 80 -20q108 0 153 78q32 54 32 98zM1193 -538v460h-136v61h327v-61h-136v-460h-55zM789 0v1292h-483v174h1163v-174h-485v-1292h-195zM722 161q-8 -68 -56 -88
q-28 -11 -61 -11q-66 0 -89 35q-11 17 -11 36q0 41 47 62q19 8 75 23q55 15 73 25q58 34 56 95q-1 34 -18 63q-17 27 -48 40q-33 15 -74 15q-92 0 -130 -61q-19 -30 -20 -67l50 -5q9 84 97 83q34 0 60 -13q34 -17 33 -52q-2 -31 -34 -50q-10 -6 -62 -19q-64 -16 -88 -28
q-70 -33 -71 -80q0 -61 22 -92q23 -33 52 -45q38 -17 77 -18q106 -1 148 69z" />
    <glyph glyph-name="qofdageshhebrew" unicode="&#xfb47;" horiz-adv-x="1593" 
d="M1014 -520q-62 -37 -115 -54l26 -54q73 23 145 72q75 -36 166 -36q92 0 166 37.5t114 106t40 154.5q0 82 -36 150q-41 74 -119 112q-75 37 -167 37t-167.5 -37t-115 -106.5t-39.5 -155.5q0 -142 102 -226zM1210 -423q-78 -18 -127 -55q-79 62 -79 184q0 145 109 204
q54 29 121 29q115 0 176 -69q55 -62 55 -164q0 -101 -55 -164q-62 -69 -176 -69q-48 0 -91 15q42 24 89 34zM286 158q-136 -94 -250 -138l58 -135q158 57 314 181q162 -90 362 -91q198 0 360 95.5t249 269.5t87 393q0 209 -80 381q-88 188 -258 285q-162 94 -362 94
q-202 0 -366 -95t-250 -270.5t-86 -394.5q0 -362 222 -575zM712 406q-168 -47 -276 -142q-170 158 -170 469q0 369 236 518q116 74 262 74q250 0 382 -176q122 -158 120 -416q0 -256 -120 -416q-134 -176 -382 -176q-104 0 -198 39q92 59 194 84z" />
    <glyph glyph-name="uniFB48" unicode="&#xfb48;" horiz-adv-x="1462" 
d="M1377 -553v518h-204q-53 0 -81 -9q-42 -14 -64 -54q-18 -35 -18 -78q0 -122 129 -141q-24 -14 -37 -26q-27 -28 -50 -69l-80 -141h76l61 108q21 36 34 56q25 38 41 49q14 11 27 14q10 3 35 3h70v-230h61zM1316 -264h-131q-77 0 -101 41q-12 22 -12 47q0 84 98 84h146
v-172zM1377 0v1466h-651q-168 0 -258 -26q-133 -39 -203 -154q-59 -98 -59 -219q0 -344 412 -399q-78 -39 -117 -74q-88 -80 -162 -195l-254 -399h244l194 305q66 102 107 160q80 106 131 139q45 31 88 39q31 8 109 8h225v-651h194zM1183 819h-418q-246 0 -321 115
q-39 61 -39 133q0 238 313 238h465v-486z" />
    <glyph glyph-name="shindageshhebrew" unicode="&#xfb49;" horiz-adv-x="1828" 
d="M874 0v-499h49v205h188v-205h49v499h-49v-233h-188v233h-49zM1652 -349l-65 5q-8 -70 -73 -95q-36 -13 -81 -13q-85 0 -115 38q-15 18 -14 41q-1 47 60 67q25 8 99 24q68 15 95 29q74 36 73 103q0 40 -23 69q-23 30 -63 45q-44 17 -97 17q-122 0 -170 -68
q-24 -33 -26 -74l67 -5q11 90 126 91q43 1 79 -14q42 -18 42 -57q0 -37 -46 -56q-10 -4 -79 -19q-84 -18 -116 -31q-88 -37 -88 -116q0 -40 25 -73q25 -31 67 -49q45 -19 100 -20q135 0 194 76q29 37 29 85zM146 555v-534h61v220h240v-220h61v534h-61v-252h-240v252h-61z
M1682 492l-185 16q-25 -215 -206 -294q-100 -43 -226 -43q-233 0 -323 122q-41 57 -41 125q0 141 172 207q68 27 276 76q176 41 269 88q207 111 206 319q0 119 -66.5 213.5t-178.5 141.5q-121 49 -271 49q-342 0 -479 -207q-66 -102 -72 -231l187 -15q31 283 356 283
q133 0 221 -45q117 -55 117 -176q0 -113 -127 -172q-51 -25 -223 -62q-238 -55 -324 -94q-250 -115 -250 -358q0 -125 71 -226.5t188 -154.5q127 -57 282 -58q393 0 545 232q78 117 82 264z" />
    <glyph glyph-name="tavdageshhebrew" unicode="&#xfb4a;" horiz-adv-x="1251" 
d="M145 448v-444h48v182h185v-182h48v444h-48v-208h-185v208h-48zM530 0v1292h-483v174h1163v-174h-485v-1292h-195z" />
    <glyph glyph-name="vavholamhebrew" unicode="&#xfb4b;" horiz-adv-x="457" 
d="M60 1371q0 109 46 177q51 72 140 72q55 0 98 -30.5t65.5 -87t22.5 -126.5q0 -69 -21 -124q-24 -60 -71 -90q-43 -29 -94 -29q-53 0 -97 31.5t-67 87.5q-22 56 -22 119zM113 1369q0 -77 33 -128q37 -55 100 -55q65 0 101 56q32 53 32 134q0 119 -63 167q-31 24 -69 24
q-69 0 -103 -60q-31 -51 -31 -138z" />
    <glyph glyph-name="uniFB4C" unicode="&#xfb4c;" horiz-adv-x="1060" 
d="M334 1188v104h403v-104h-403zM205 0h655q37 0 60 23t22 59v231q2 16 0 31v475q0 39 -22.5 60.5t-59.5 21.5h-643q-25 6 -49 -6q-20 -8 -35 -37q-27 -45 4 -86q8 -16 29 -27l612 -458v-123h-573q-53 0 -73.5 -41t0 -82t73.5 -41zM451 737h327v-245z" />
    <glyph glyph-name="uniFB4D" unicode="&#xfb4d;" horiz-adv-x="940" 
d="M635 766l-414 158q-45 18 -82 -13q-31 -27 -28 -75q2 -45 53 -64l598 -227q-10 -72 -37 -137q-23 -57 -66 -113q-43 -55 -104 -82q-63 -29 -147 -37q-88 -8 -199 14q-29 6 -53 -6q-27 -12 -35 -34q-10 -23 -10 -48t18 -45q16 -20 47 -26q221 -45 383 2
q158 47 228.5 161.5t111.5 266.5q41 154 35 317q-4 111 -4 320q0 53 -43 71t-82 -4q-37 -23 -37 -75v-20.5t1 -40t3 -46.5q0 -23 3 -69t3 -64l-188 289q-27 43 -76 39q-45 -2 -64.5 -42t1.5 -87zM328 1262v104h403v-104h-403z" />
    <glyph glyph-name="uniFB4E" unicode="&#xfb4e;" horiz-adv-x="1114" 
d="M788 1108q-41 -43 -73 -68q-39 -29 -94 -51q-78 -31 -89 -35q-31 -10 -100 -30q-25 -6 -55.5 -16.5t-32.5 -10.5q-51 -14 -57 -61t24 -78q33 -33 82 -17l70 21q18 4 43.5 13t32.5 11q8 2 31.5 11.5t37.5 13.5q18 6 76 29q27 10 68 34q20 12 67 44q10 -90 -18 -168
q-33 -88 -84 -152q-57 -72 -135 -137q-61 -53 -152 -119q-74 -53 -154 -109q-84 -57 -122 -88q-25 -18 -31 -44.5t4 -49.5q6 -16 31 -37q16 -14 47 -14q27 0 51 18q59 47 119 93q20 16 52 39.5t51.5 39t35.5 27.5q43 33 137 117q82 74 131 131q53 63 105 137q49 72 74 152
q18 59 18 157q0 88 -37 170q-2 23 -22 41q-18 23 -39 25q-39 10 -74 -21q-2 -2 -9.5 -8t-9.5 -10zM424 1188v104h403v-104h-403z" />
    <glyph glyph-name="uniFB4F" unicode="&#xfb4f;" horiz-adv-x="1148" 
d="M250 1411v-350h94l340 -475q47 31 66 59q29 41 41 92q16 68 43 324h198l-24 -219q-18 -156 -68 -238q-51 -86 -160 -155l318 -449h-236l-612 862h-195v549h195z" />
    <glyph glyph-name="finalkafqamatshebrew" horiz-adv-x="1138" 
d="M1044 0v1466h-194v-1294h-721v-172h915z" />
    <glyph glyph-name="finalkafshevahebrew" horiz-adv-x="1138" 
d="M1044 0v1466h-194v-1294h-721v-172h915z" />
    <glyph glyph-name="glyph268" 
 />
  </font>
</defs>
</svg>
